<svg version="1.1" xmlns="http://www.w3.org/2000/svg" xmlns:xlink="http://www.w3.org/1999/xlink" width="400.000000pt" height="400.000000pt" viewBox="0,0,256,256"><g fill="#ffffff" fill-rule="nonzero" stroke="none" stroke-width="1" stroke-linecap="butt" stroke-linejoin="miter" stroke-miterlimit="10" stroke-dasharray="" stroke-dashoffset="0" font-family="none" font-weight="none" font-size="none" text-anchor="none" style="mix-blend-mode: normal"><g transform="translate(-0.0524,-0.06604) scale(0.5,0.5)"><g transform="translate(0,512) scale(0.1,-0.1)"><path d="M4330,5105c-85,-19 -214,-83 -275,-137c-36,-32 -1660,-1803 -2316,-2526l-58,-63l-145,-438c-132,-395 -146,-443 -146,-506c0,-191 175,-335 356,-295c67,15 829,348 881,385c33,23 2067,2240 2326,2535c135,154 189,395 131,590c-58,199 -223,370 -421,436c-98,33 -237,41 -333,19zM4545,4661c108,-49 157,-192 97,-283c-27,-40 -1953,-2148 -1964,-2148c-5,0 -74,59 -154,132l-144,132l38,40c22,23 465,507 985,1077c741,812 954,1040 984,1052c51,21 109,21 158,-2zM2320,1953l65,-60l-31,-16c-72,-37 -426,-188 -431,-183c-5,5 131,424 149,459c10,19 9,20 248,-200z"></path><path d="M907,4639c-232,-24 -451,-132 -614,-302c-128,-133 -208,-280 -256,-467l-22,-85v-1465v-1465l28,-100c92,-337 331,-593 654,-704c151,-51 142,-51 1654,-51c1209,0 1419,2 1493,15c435,76 767,421 825,858c7,50 11,426 11,1051c0,1082 3,1026 -67,1098c-85,87 -221,88 -307,2c-65,-66 -60,14 -66,-1109l-5,-1020l-22,-66c-57,-166 -196,-305 -362,-362l-66,-22l-1410,-3c-1558,-3 -1484,-6 -1617,60c-86,43 -204,162 -246,248c-64,130 -62,68 -62,1575c0,1511 -2,1441 64,1573c66,132 187,234 336,285c65,22 65,22 1115,27c1157,6 1074,1 1137,67c58,61 74,161 39,239c-26,57 -92,110 -153,123c-59,13 -1960,13 -2081,0z"></path></g></g></g></svg>