<svg version="1.1" xmlns="http://www.w3.org/2000/svg" xmlns:xlink="http://www.w3.org/1999/xlink" width="512.000000pt" height="512.000000pt" viewBox="0,0,256,256"><g fill="#ffffff" fill-rule="nonzero" stroke="none" stroke-width="1" stroke-linecap="butt" stroke-linejoin="miter" stroke-miterlimit="10" stroke-dasharray="" stroke-dashoffset="0" font-family="none" font-weight="none" font-size="none" text-anchor="none" style="mix-blend-mode: normal"><g transform="translate(0.05625,0.0238) scale(0.5,0.5)"><g transform="translate(0,512) scale(0.1,-0.1)"><path d="M2330,5110c-494,-48 -950,-230 -1350,-538c-195,-150 -448,-432 -594,-662c-63,-99 -186,-351 -230,-471c-49,-134 -102,-340 -128,-499c-31,-195 -31,-565 0,-760c45,-276 116,-498 237,-745c132,-269 269,-460 489,-681c221,-220 412,-357 681,-489c247,-121 469,-192 745,-237c195,-31 565,-31 760,0c276,45 498,116 745,237c269,132 460,269 681,489c220,221 357,412 489,681c88,179 132,296 180,476c63,240 78,371 78,649c0,278 -15,409 -78,649c-48,180 -92,297 -180,476c-132,269 -269,460 -489,681c-221,220 -412,357 -681,489c-246,121 -474,193 -740,235c-147,23 -475,34 -615,20zM2798,4709c488,-53 934,-270 1288,-623c415,-415 634,-943 634,-1526c0,-583 -219,-1111 -634,-1526c-415,-415 -943,-634 -1526,-634c-583,0 -1111,219 -1526,634c-415,415 -634,943 -634,1526c0,583 219,1111 634,1526c349,349 800,569 1276,623c110,12 376,13 488,0z"></path><path d="M2515,3761c-67,-17 -127,-74 -144,-138c-7,-24 -11,-190 -11,-440v-403h-390c-251,0 -408,-4 -442,-11c-65,-14 -129,-73 -148,-136c-27,-89 18,-191 102,-232c43,-20 56,-21 461,-21h416l3,-422c3,-407 4,-425 24,-463c11,-22 40,-53 63,-70c37,-26 51,-30 111,-30c60,0 74,4 111,30c23,17 52,48 63,70c20,38 21,56 24,463l3,422h416c405,0 418,1 461,21c84,41 129,143 102,232c-19,63 -83,122 -148,136c-34,7 -191,11 -442,11h-390v403c0,250 -4,416 -11,440c-11,43 -59,101 -98,121c-35,18 -99,26 -136,17z"></path></g></g></g></svg>